<?xml version="1.0" encoding="utf-8"?>
<!-- Generator: Adobe Illustrator 19.0.0, SVG Export Plug-In . SVG Version: 6.00 Build 0)  -->
<svg version="1.1" id="Layer_1" xmlns="http://www.w3.org/2000/svg" xmlns:xlink="http://www.w3.org/1999/xlink" x="0px" y="0px"
	 viewBox="-406 362 77.6 77.6" style="enable-background:new -406 362 77.6 77.6;" xml:space="preserve">
<style type="text/css">
	.st0{fill:#939191;}
</style>
<g id="surface1">
	<path class="st0" d="M-371.2,386.8c-3.9,0-7,3.1-7,7c0,2.4,1.2,4.6,3.1,5.8c-3.6,1.5-6.1,5.1-6.1,9.2h2c0-4.4,3.6-8,8-8
		c1.4,0,2.7,0.4,3.8,1c-1.1,1.4-1.8,3.1-1.8,5c0,4.4,3.6,8,8,8s8-3.6,8-8s-3.6-8-8-8c-1.7,0-3.4,0.6-4.7,1.5
		c-0.4-0.3-0.9-0.5-1.4-0.7c1.9-1.3,3.1-3.4,3.1-5.8C-364.2,389.9-367.4,386.8-371.2,386.8z M-371.2,388.8c2.8,0,5,2.2,5,5
		c0,2.8-2.2,5-5,5c-2.8,0-5-2.2-5-5C-376.2,391-374,388.8-371.2,388.8z M-361.2,400.8c3.3,0,6,2.7,6,6s-2.7,6-6,6s-6-2.7-6-6
		S-364.6,400.8-361.2,400.8z M-362.2,402.8v3h-3v2h3v3h2v-3h3v-2h-3v-3H-362.2z"/>
</g>
</svg>
