<?xml version="1.0" encoding="UTF-8"?>
<svg xmlns="http://www.w3.org/2000/svg" xmlns:xlink="http://www.w3.org/1999/xlink" viewBox="0 0 24 24" version="1.1" fill="#787878"><g id="surface1" fill="#787878"><path style=" " d="M 21.800781 8.601563 L 19.601563 5 C 19.199219 4.398438 18.601563 4 17.898438 4 L 6.101563 4 C 5.398438 4 4.800781 4.398438 4.398438 5 L 2.199219 8.601563 C 2.101563 8.800781 2 9.199219 2 9.5 L 2 20 C 2 21.101563 2.898438 22 4 22 L 20 22 C 21.101563 22 22 21.101563 22 20 L 22 9.5 C 22 9.199219 21.898438 8.800781 21.800781 8.601563 Z M 15 13 C 14.800781 13 9.199219 13 9 13 C 8.398438 13 8 12.601563 8 12 C 8 11.398438 8.398438 11 9 11 C 9.199219 11 14.800781 11 15 11 C 15.601563 11 16 11.398438 16 12 C 16 12.601563 15.601563 13 15 13 Z M 4.199219 9 L 5.898438 6 L 18.101563 6 L 19.800781 9 Z " fill="#787878"/></g></svg>
