<?xml version="1.0" encoding="utf-8"?>
<!-- Generator: Adobe Illustrator 18.0.0, SVG Export Plug-In . SVG Version: 6.00 Build 0)  -->
<!DOCTYPE svg PUBLIC "-//W3C//DTD SVG 1.1//EN" "http://www.w3.org/Graphics/SVG/1.1/DTD/svg11.dtd">
<svg version="1.1" id="Layer_1" xmlns="http://www.w3.org/2000/svg" xmlns:xlink="http://www.w3.org/1999/xlink" x="0px" y="0px"
	 viewBox="0 0 80 80" enable-background="new 0 0 80 80" xml:space="preserve">
<g>
	<g>
		<path fill="#90C9F8" d="M66.5,9c-2.7,0-4.9,0-7.3,0v0c-4,0-7.1,0-11.1,0c0.5,10.3-2.3,19.9-6.7,29.1c1.4,0,2.8,0,4.2,0
			c2.7-2,3.7-5,4.6-8c1-3.5,4.1-4,7-4.1c2.9,0.1,6,0.5,7.1,4.1c0.9,3,1.9,6,4.6,8c1.4,0,2.8,0,4.2,0C68.8,28.9,66.1,19.3,66.5,9z"/>
		<path fill="#F9F9F9" d="M69,38.2c-4-10.8-4.5-13.1-9.8-13.5v0c-0.1,0-0.2,0-0.2,0c-0.5,0-1,0-1.5,0c-0.7,0-1.3,0-1.9,0
			c0,0-0.1,0-0.1,0v0c-5.3,0.3-5.8,2.7-9.8,13.5c3.6,0,6.5,0,9.8,0v0C60.4,38.2,64.1,38.2,69,38.2z"/>
	</g>
	<g>
		<path fill="#627E8C" d="M11.6,33.7L37.9,7.4c1.1-1.1,2.9-1.1,4.1,0l1.1,1.1c1.1,1.1,1.1,2.9,0,4.1L16.8,38.9
			c-1.1,1.1-2.9,1.1-4.1,0l-1.1-1.1C10.5,36.7,10.5,34.9,11.6,33.7z"/>
		<path fill="#475C66" d="M63.1,38.9L36.8,12.6c-1.1-1.1-1.1-2.9,0-4.1l1.1-1.1c1.1-1.1,2.9-1.1,4.1,0l26.3,26.3
			c1.1,1.1,1.1,2.9,0,4.1l-1.1,1.1C66.1,40.1,64.2,40.1,63.1,38.9z"/>
	</g>
	<g>
		<circle fill="#FDB304" cx="22.9" cy="38.7" r="17.3"/>
		<g>
			<path fill="#53B053" d="M4.6,18.9c0,0,2.9,14,18.3,10.8C20.8,18,4.6,18.9,4.6,18.9z"/>
			<path fill="#428C42" d="M4.6,18.9l18.3,10.8C20.8,18,4.6,18.9,4.6,18.9z"/>
		</g>
	</g>
	<g id="GOjBjR.tif">
		<g>
			<g>
				<path fill="#D23030" d="M4.6,45.1c23.5,0,47.1,0,70.6,0c-2,9.9-4,19.8-5.9,29.7c-0.6,3.1-2.3,4.5-5.6,4.5
					c-16-0.1-31.9-0.1-47.9,0c-3.5,0-5-1.6-5.6-4.9C8.6,64.6,6.6,54.9,4.6,45.1z"/>
			</g>
			<path fill="#F34336" d="M3,45.1h73.9c1.7,0,3-1.3,3-3v-5.7c0-1.7-1.3-3-3-3H3c-1.6,0-3,1.3-3,3v5.7C0,43.8,1.4,45.1,3,45.1z"/>
		</g>
		<g>
			<path fill="#7D1313" d="M25.2,70.8h-0.8c-0.8,0-1.5-0.7-1.5-1.5V49.9c0-0.8,0.7-1.5,1.5-1.5h0.8c0.8,0,1.5,0.7,1.5,1.5v19.4
				C26.6,70.2,26,70.8,25.2,70.8z"/>
			<path fill="#7D1313" d="M32.8,70.8h-0.8c-0.8,0-1.5-0.7-1.5-1.5V49.9c0-0.8,0.7-1.5,1.5-1.5h0.8c0.8,0,1.5,0.7,1.5,1.5v19.4
				C34.2,70.2,33.6,70.8,32.8,70.8z"/>
			<path fill="#7D1313" d="M40.3,70.8h-0.8c-0.8,0-1.5-0.7-1.5-1.5V49.9c0-0.8,0.7-1.5,1.5-1.5h0.8c0.8,0,1.5,0.7,1.5,1.5v19.4
				C41.8,70.2,41.2,70.8,40.3,70.8z"/>
			<path fill="#7D1313" d="M47.9,70.8h-0.8c-0.8,0-1.5-0.7-1.5-1.5V49.9c0-0.8,0.7-1.5,1.5-1.5h0.8c0.8,0,1.5,0.7,1.5,1.5v19.4
				C49.4,70.2,48.7,70.8,47.9,70.8z"/>
			<path fill="#7D1313" d="M55.5,70.8h-0.8c-0.8,0-1.5-0.7-1.5-1.5V49.9c0-0.8,0.7-1.5,1.5-1.5h0.8c0.8,0,1.5,0.7,1.5,1.5v19.4
				C57,70.2,56.3,70.8,55.5,70.8z"/>
		</g>
	</g>
	<g id="NHWbkZ.tif">
		<g>
			<path fill="#9D2CB1" d="M46.7,9.1c-2.3-2.7-1.5-5.6-0.4-8.4c7.2,0,14.4,0,21.6,0c1.1,2.9,2,5.7-0.4,8.4
				C60.6,9.1,53.6,9.1,46.7,9.1z"/>
		</g>
	</g>
</g>
</svg>
