<?xml version="1.0" encoding="utf-8"?>
<svg xmlns="http://www.w3.org/2000/svg" viewBox="0 0 32 32" fill="#393d4c"><path d="M 6 6 C 4.35 6 3 7.35 3 9 L 3 22 C 3 23.65 4.35 25 6 25 L 14.259766 25 C 14.099766 24.37 14.01 23.7 14 23 L 6 23 C 5.45 23 5 22.55 5 22 L 5 9 C 5 8.45 5.45 8 6 8 L 26 8 C 26.55 8 27 8.45 27 9 L 27 10 L 6 10 L 6 12 L 27 12 L 27 13.650391 C 27.25 13.770391 27.490469 13.899297 27.730469 14.029297 C 28.140469 14.229297 28.54 14.430078 29 14.580078 L 29 9 C 29 7.35 27.65 6 26 6 L 6 6 z M 24 14.900391 C 22.9 14.900391 22.100781 15.300781 21.300781 15.800781 C 20.300781 16.300781 19.1 16.900391 17 16.900391 L 16 16.900391 L 16 22.900391 C 16 28.500391 23.299609 31.700781 23.599609 31.800781 L 24 32 L 24.400391 31.800781 C 24.700391 31.700781 32 28.500391 32 22.900391 L 32 16.900391 L 31 16.900391 C 29 16.900391 27.800781 16.300781 26.800781 15.800781 C 25.900781 15.300781 25.1 14.900391 24 14.900391 z M 24 16.900391 C 24.6 16.900391 25.100781 17.199609 25.800781 17.599609 C 26.900781 18.099609 28.1 18.700391 30 18.900391 L 30 22.900391 C 30 26.600391 25.4 29.100781 24 29.800781 C 22.6 29.100781 18 26.600391 18 22.900391 L 18 18.900391 C 20 18.700391 21.299219 18 22.199219 17.5 C 22.899219 17.2 23.4 16.900391 24 16.900391 z" fill="#393d4c"/></svg>
