<?xml version="1.0" encoding="iso-8859-1"?>
<!-- Generator: Adobe Illustrator 21.1.0, SVG Export Plug-In . SVG Version: 6.00 Build 0)  -->
<svg xmlns="http://www.w3.org/2000/svg" xmlns:xlink="http://www.w3.org/1999/xlink" version="1.1" id="Layer_1" x="0px" y="0px" viewBox="0 0 48 48" style="enable-background:new 0 0 48 48;" xml:space="preserve">
<g>
	<rect x="1" y="39" style="fill:#D7CCC8;" width="42" height="2"/>
	<rect x="25" y="19" style="fill:#D7CCC8;" width="4" height="16"/>
	<rect x="31" y="19" style="fill:#D7CCC8;" width="4" height="16"/>
	<rect x="37" y="19" style="fill:#D7CCC8;" width="4" height="16"/>
	<rect x="19" y="19" style="fill:#D7CCC8;" width="4" height="16"/>
	<rect x="13" y="19" style="fill:#D7CCC8;" width="4" height="16"/>
	<rect x="7" y="19" style="fill:#D7CCC8;" width="4" height="16"/>
	<polygon style="fill:#D7CCC8;" points="43,17 5,17 5,14 24,5 43,14  "/>
	<rect x="5" y="35" style="fill:#D7CCC8;" width="38" height="2"/>
</g>
<g>
	<rect x="25" y="17" style="fill:#BCAAA4;" width="4" height="2"/>
	<rect x="31" y="17" style="fill:#BCAAA4;" width="4" height="2"/>
	<rect x="37" y="17" style="fill:#BCAAA4;" width="4" height="2"/>
	<rect x="19" y="17" style="fill:#BCAAA4;" width="4" height="2"/>
	<rect x="13" y="17" style="fill:#BCAAA4;" width="4" height="2"/>
	<rect x="7" y="17" style="fill:#BCAAA4;" width="4" height="2"/>
	<rect x="3" y="37" style="fill:#BCAAA4;" width="42" height="2"/>
	<circle style="fill:#BCAAA4;" cx="24" cy="12" r="2"/>
</g>
<path style="fill:#3F51B5;" d="M23,45c0,1.656,1.343,3,3,3h19c1.657,0,3-1.344,3-3V33c0-1.656-1.343-3-3-3H26c-1.657,0-3,1.344-3,3  V45z"/>
<rect x="40" y="34" style="fill:#FFC107;" width="5" height="4"/>
<rect x="26" y="42" style="fill:#FFC107;" width="4" height="2"/>
<rect x="31" y="42" style="fill:#FFC107;" width="4" height="2"/>
<rect x="36" y="42" style="fill:#FFC107;" width="4" height="2"/>
<rect x="41" y="42" style="fill:#FFC107;" width="4" height="2"/>
</svg>
